<svg width="32" height="32" viewBox="0 0 32 32" fill="none" xmlns="http://www.w3.org/2000/svg">
<path d="M16.4814 8.63739L9.55654 16.5683C8.81448 17.4181 8.81448 18.7949 9.55654 19.6448L11.9311 22.3643C12.2873 22.7722 12.7711 23 13.2757 23H16.4013H16.6803H23.0502C23.5755 23 24 22.5139 24 21.9122C24 21.3105 23.5755 20.8244 23.0502 20.8244H19.3666L23.2461 16.3847C23.9881 15.5348 23.9881 14.1581 23.2461 13.3082L19.1707 8.63739C18.4286 7.78754 17.2265 7.78754 16.4844 8.63739H16.4814ZM16.6803 20.8278H16.4013H13.2728L10.8982 18.1082L14.5996 13.8691L18.6779 18.5399L16.6803 20.8278Z" fill="#fff"/>
</svg>
