<svg width="32" height="32" fill="none" xmlns="http://www.w3.org/2000/svg">
    <path d="M22.59 22.031c.227 0 .41.176.41.394a.401.401 0 0 1-.41.393h-8.726a.401.401 0 0 1-.41-.393c0-.218.184-.394.41-.394h8.727ZM18.928 8.69a1.768 1.768 0 0 1 2.48 0l1.079 1.067a1.721 1.721 0 0 1 0 2.453l-1.325 1.31L17.603 10l1.325-1.31Zm1.615 5.442-6.383 6.313c-.285.282-.638.49-1.024.601l-3.294.959a.622.622 0 0 1-.65-.187.592.592 0 0 1-.165-.62l.969-3.258c.113-.382.322-.731.607-1.013l6.382-6.314 3.558 3.52Z"
          fill="#fff"/>
</svg>
