<svg width="32" height="32" fill="none" xmlns="http://www.w3.org/2000/svg">
    <path d="M24.328 13.248a1.253 1.253 0 0 1 1.772 0l.77.771a1.252 1.252 0 0 1 0 1.77l-.946.947-2.542-2.541.946-.947Zm1.154 3.93-4.56 4.558a1.714 1.714 0 0 1-.731.434l-2.353.693a.441.441 0 0 1-.464-.135.43.43 0 0 1-.118-.448l.692-2.352c.081-.276.23-.528.434-.732l4.558-4.559 2.542 2.541ZM6.908 13.248a1.253 1.253 0 0 0-1.771 0l-.77.771a1.252 1.252 0 0 0 0 1.77l.946.947 2.542-2.541-.947-.947Zm-1.153 3.93 4.56 4.558c.203.204.455.354.73.434l2.353.693a.441.441 0 0 0 .465-.135.43.43 0 0 0 .118-.448l-.692-2.352a1.724 1.724 0 0 0-.434-.732l-4.558-4.559-2.542 2.541ZM15 8.643A.63.63 0 0 1 15.618 8a.63.63 0 0 1 .619.643v13.714a.63.63 0 0 1-.619.643.63.63 0 0 1-.618-.643V8.643Z"
          fill="#fff"/>
</svg>
