<svg width="32" height="32" fill="none" xmlns="http://www.w3.org/2000/svg">
    <path d="M14.25 9c.484 0 .875.392.875.875V12.5h-3.5V9.875c0-.483.391-.875.875-.875h1.75ZM9 16a2.61 2.61 0 0 1 2.625-2.625h3.5A2.61 2.61 0 0 1 17.75 16v5.688c0 .724-.588 1.312-1.313 1.312h-6.125A1.313 1.313 0 0 1 9 21.687V16Zm4.375 0a2.187 2.187 0 1 0-.001 4.374A2.187 2.187 0 0 0 13.375 16Zm4.375-5.25a.875.875 0 1 1-1.75 0 .875.875 0 0 1 1.75 0Zm.875 0a.875.875 0 1 1 1.75 0 .875.875 0 0 1-1.75 0Zm4.375 0a.875.875 0 1 1-1.75 0 .875.875 0 0 1 1.75 0Zm-1.75 2.625a.874.874 0 1 1 1.75 0 .874.874 0 1 1-1.75 0ZM23 16a.874.874 0 1 1-1.75 0A.874.874 0 1 1 23 16Zm-4.375-2.625a.874.874 0 1 1 1.75 0 .874.874 0 1 1-1.75 0Z"
          fill="#fff"/>
</svg>
